# xmcd CD database file
#
# Track frame offsets:
#	150
#	17474
#	34289
#	54938
#	76944
#	98433
#	117888
#	134849
#
# Disc length: 2037 seconds
#
# Revision: 0
# Processed by: cddbd v1.5.2PL0 Copyright (c) Steve Scherf et al.
# Submitted via: jetAudio 7
#
DISCID=5a07f308
DTITLE=조덕배 - 조덕배 Best Love Song_CD2
DYEAR=1900
DGENRE=Ballad
TTITLE0=사랑이 끝나면
TTITLE1=나의 옛날이야기(Live)
TTITLE2=꿈에(Live)
TTITLE3=비처럼 음악처럼
TTITLE4=내마음에 비친 내모습
TTITLE5=하늘에서 나무까지(feat. 전재덕)
TTITLE6=이세상에 단하나뿐인 연인(feat. 조pd and 정지선)
TTITLE7=슬픈노래는 부르지 않을거야(feat. 김현아)
EXTD=
EXTT0=
EXTT1=
EXTT2=
EXTT3=
EXTT4=
EXTT5=
EXTT6=
EXTT7=
PLAYORDER=
